<?xml version="1.0" encoding="UTF-8"?>
<svg id="Capa_1" data-name="Capa 1" xmlns="http://www.w3.org/2000/svg" viewBox="110 91 465.47 468.48">
  <defs>
    <style>
      .cls-1 {
        font-family: Orbitron-Black, Orbitron;
        font-size: 70.68px;
        font-weight: 800;
      }

      .cls-1, .cls-2 {
        fill: currentColor;
      }
    </style>
  </defs>
  <path class="cls-2" d="M341.07,95.11c-127.18,0-230.28,103.1-230.28,230.28s103.1,230.28,230.28,230.28,230.28-103.1,230.28-230.28-103.1-230.28-230.28-230.28ZM193.48,343.28l-33.2-21.21,49.15-84.83,32.77,21.21c4.31,2.26,5.6,8.12,3.02,12.18l-40.1,69.49c-2.16,4.51-7.76,5.87-11.64,3.16ZM249.1,421.34c-3.45.45-6.9-.9-9.49-3.16-5.17-4.96-6.04-13.54-1.29-18.95l22.85-27.07c4.74-5.41,12.93-6.32,18.11-1.35,5.17,4.96,6.04,13.54,1.29,18.95l-22.85,27.07c-2.59,2.71-5.6,4.06-8.62,4.51ZM280.57,438.04c-3.45.45-6.9-.9-9.49-3.16-5.17-4.96-6.04-13.54-1.29-18.95l19.83-23.91c4.74-5.41,12.93-6.32,18.11-1.35,5.17,4.96,6.04,13.54,1.29,18.95l-19.83,23.91c-2.16,2.71-5.6,4.51-8.62,4.51ZM307.73,454.73c-3.02.45-5.6-.45-8.19-2.71-4.31-4.06-4.74-11.28-.86-15.79l19.83-23.91c3.88-4.51,10.78-4.96,15.09-.9,4.31,4.06,4.74,11.28.86,15.79l-19.83,23.91c-1.72,2.26-4.31,3.61-6.9,3.61ZM339.64,461.95c-1.29,1.81-3.45,2.71-5.6,3.16-2.16,0-4.74-.45-6.47-2.26-3.45-3.16-3.88-9.02-.86-12.63l16.81-20.3c3.02-3.61,8.62-4.06,12.07-.9,3.45,3.16,3.88,9.02.86,12.63l-16.81,20.3ZM428.88,412.77c-3.45.45-6.47-.45-9.05-1.8,0,.9.43,1.8.43,2.71.86,9.93-6.04,18.5-15.52,19.4-1.29,0-3.02,0-4.31-.45v.45c.86,9.93-6.04,18.5-15.52,19.4-1.29,0-3.02,0-4.31-.45v.45c.86,9.93-6.04,18.5-15.52,19.4-3.88.45-7.33-.9-10.35-2.71l-6.04-4.96,14.66-17.6c3.02-3.61,4.74-8.12,4.31-13.09-.43-4.51-2.59-9.02-6.04-12.18-3.02-3.16-6.9-4.51-11.21-4.51-1.72,0-3.45.45-4.74.9-.43-5.41-2.59-10.38-6.47-13.99-3.88-3.16-8.19-4.96-12.93-4.96-1.72,0-3.88.45-5.6.9,0-6.32-2.59-12.18-7.33-16.69-3.88-3.61-9.05-5.41-14.23-5.41-2.59,0-5.17.45-7.33,1.35-.43-6.32-2.59-12.18-7.33-16.24-3.88-3.61-9.05-5.41-14.23-5.41-6.47,0-12.5,2.71-16.38,7.67l-11.21,13.54-29.32-35.65,37.51-64.97c26.3,13.54,51.74,2.71,71.57,5.41l-25.44,30.68c-9.05,11.28-8.19,28.43,2.59,38.35,4.31,4.51,10.35,6.77,16.81,6.77h2.16c6.9-.45,12.93-3.61,17.25-9.02l29.75-35.65,4.74,4.51,69.41,62.27c3.02,3.16,5.17,7.22,4.74,12.18.86,9.93-6.04,18.5-15.52,19.4ZM450.01,379.83c-1.72-2.71-2.59-3.61-4.74-5.87l-80.62-72.65-35.35,42.41c-3.02,4.06-7.33,5.87-11.64,6.32-4.74.45-9.05-1.35-12.93-4.51-7.33-6.32-8.19-17.6-1.72-25.27l34.06-40.61c3.88-4.51,9.49-6.32,14.66-5.87,0,0,1.72.45,2.16.45,28.89,5.87,54.76,18.95,90.54,5.41l36.65,62.72-31.04,37.45ZM501.32,343.28c-3.88,2.71-9.49,1.35-11.64-3.16l-40.1-69.49c-2.59-4.06-1.29-9.93,3.02-12.18l33.2-21.21,48.72,84.83-33.2,21.21Z"/>
</svg>
