<?xml version="1.0" encoding="UTF-8"?>
<svg id="Capa_1" data-name="Capa 1" xmlns="http://www.w3.org/2000/svg" viewBox="0 0 499.22 455.94">
  <defs>
    <style>
      .cls-1, .cls-2 {
        fill: #fff;
        stroke: #2c4e62;
        stroke-miterlimit: 10;
      }

      .cls-2 {
        font-family: Orbitron-Black, Orbitron;
        font-size: 59.85px;
        font-weight: 800;
      }
    </style>
  </defs>
  <path class="cls-1" d="M275.48,38.54c-109.84,0-198.88,89.14-198.88,199.09s89.04,199.09,198.88,199.09,198.88-89.14,198.88-199.09S385.31,38.54,275.48,38.54ZM320.14,74.85c1.18-.72,3.17-1.45,3.64.23.22.87-.14,1.87-.43,2.72-1.11,2.98-1.79,5.99-2.4,9.15-.52,2.46.19,4.88,2.07,6.61,20.9,18.85,42.39,37.21,63.48,55.78,1.67,1.35,1.76,2.2-.3,2.6-2.42.56-5.09,1.19-6.97-.69-14.95-12.81-49.27-44.33-58.86-50.7-2.54.29.38,15.42,1.09,17.59.26.86.47,1.98.93,2.47,2.96,3.02,27.4,22.1,38.65,31.16.81.67,1.27,1.23-.19,1.12-3.04-.45-6.87-.47-9.96-1.77-6.1-4.1-10.6-9-17.02-12.99-1.42-.97-2.96-2.04-4.31-2.97-.64-.44-1.19-.78-1.47-.67-.29.09-.27.69-.06,1.51,1.12,4.51,5.38,7.94,8.19,11.71.22.33.62.76.36,1.05-.31.23-1.33.05-1.87-.06-7.67-1.48-15.66-3.13-23.09-4.79-1.22-.3-2.32-.83-3.04-1.88l-.12-.17c-13.73-23.41-14.48-52.85,11.65-67.01ZM240.44,404.89c-1.27.79-3.5,1.72-3.97-.16-.19-.85.09-1.84.35-2.69.96-2.86,1.62-5.75,2.11-8.77.82-3.54-1.35-6.5-4.07-8.55-20.56-17.68-41.48-35.13-62.15-52.63-.65-.53-1.87-1.61-1.59-2.21.2-.72,2.16-1.06,3.79-1.35,2.02-.4,3.93.43,5.4,1.82,18.26,15.47,36.42,31.11,54.89,46.39,2.4,2.16,4.1,1.68,3.8-1.61-.38-4.89-1.65-9.63-3.17-14.29-.6-1.84-1.64-3.46-3.14-4.71-11.52-9.15-23.23-18.09-34.79-27.17-1.05-.86-1.25-1.37.36-1.27,2.95.35,6.54.4,9.32,1.52,5.76,3.32,10.41,8.4,16.07,11.93,1.31.72,2.84,2.43,4.31,2.41.55-.18-.01-1.56-.78-2.91-1.13-2.01-2.89-5.04-4.26-7.25-.27-.54-.93-1.34-.55-1.86.39-.34,1.52-.15,2.17-.03,7.48,1.32,15.29,2.77,22.53,4.28,1.29.32,2.46.87,3.28,1.92l.13.16c14.14,22.84,15.42,52.44-10.05,67.05ZM298.59,330.64c-5.84,3.98-12.67,5.03-19.63,5.26-7.39.25-15.1-.37-23.46-1.31-15.68-3.06-42.88-7.63-44.6-7.76-6.14-1.21-13.66-1.89-21.22-1.85-.58,0-1.26,0-2.05.03-11.68.27-23.04,2.77-30.22,6.5-4.09,1.96-7.09,4.74-10.82,7.38-.82.58-1.59,1.52-2.73.82-.97-.6-.65-1.63-.49-2.51,2.41-13.23,8.19-24.25,20.86-30.3,6.04-2.88,14.43-3.69,19.37-4.01,3.07-.2,9.25-.39,12.32-.13,9.17.77,36.16,5.83,36.35,5.85.42.06,2.58.33,2.58.33.3-.19-1.25-3.67-1.25-3.67l-19.78-42.68c-1.14-1.62-.13-8.03.94-8.49.08.19,7.54,16.37,11.36,24.33,4.76,9.92,9.89,19.91,15.49,29.38,1.54,2.61,2.87,3.59,4.79,3.8,3.75.4,5.63.89,9.35,1.59,3.37.63,6.71,1.48,10.85,1.17-.87-1.74-1.42-3.12-2.2-4.36-11.7-18.66-37.51-59.38-37.51-59.38,0,0,4.68-.33,6.71-.36.14.24.29.5.47.79,12.78,20.31,25.59,40.61,38.38,60.92,1.4,2.23,3.18,3.54,5.96,3.22,1.47-.17,2.98-.06,4.47-.13,5.94-.25,7.62-2.9,5.33-8.51-.43-1.05-1.09-2.02-1.73-2.96-1.62-2.37-3.33-4.68-4.93-7.05-4.81-7.13-9.62-14.27-14.42-21.4-1.49-2.21-2.98-4.41-4.46-6.62-2.75-4.08-5.49-8.15-8.24-12.23-.9-1.34-1.8-2.67-2.7-4.01l7.98,1.32c.8,1.18,1.6,2.36,2.4,3.54.66.97,8.82,12.99,12.13,17.83,1.01,1.48,2.02,2.97,3.04,4.45,2.29,3.32,4.26,6.9,7.59,10.37-.07-1.19-.02-1.64-.13-2.04-.24-.88-.54-1.75-.84-2.61-1.23-3.52-2.71-6.91-4.33-10.24-2.47-5.07-5.3-9.96-8.26-14.79-1.05-1.71-2.11-3.42-3.19-5.13l12.11,2,.79.13,12.36,2.04,1.24.2c.34.53.77,1.04,1.06,1.53,1.82,3.08,3.5,6.2,5.02,9.37,5.48,11.41,8.82,23.43,8.7,36.49-.09,9.61-2.43,18.2-10.79,23.9ZM346.27,254.29c-10.7,3.89-22.2,3.98-33.14,2.85-17.79-2.18-35.53-5.91-53.4-7.95-12.25-1.19-33.88-3.07-43.55.34-4.15,1.61-6.5,6.66-6,10.76.79,8.39,7.4,27.22,12.15,38.79.6,1.6,1.84,3.66-.83,3.1-2.76-.5-8.66-1.68-12.4-2.4-2.13-.41-3.36-.61-4.06-1.43l-.09-.1c-3.7-7.89-6.93-18.22-9.54-26.79-1.11-3.96-1.77-7.18-2.15-11.19-2.77-35.72,33.64-39.88,61.57-35.6,7.6,1.1,17.03,2.55,24.46,3.87,2.07.37,2.86.57,4.25.85.94.15,2.12.52,2.98.01,1.38-.99-.05-3.24-.63-4.49-6.64-12.79-14.79-28.61-20.25-41.7-1.16-2.68-1.94-3.75-1.01-5.56.58-1.12,1.54-2.37,2.47-3.15,1.4-1.23,1.79,2.08,2.91,4.15,3.14,7.34,6.57,15.4,9.95,22.43,4.11,8.54,8.46,17.03,13.21,25.28,1.85,3.63,4.63,6.5,8.87,6.75,3.86.59,7.84,1.54,11.72,2.09,2.57.46,6.04.38,4.12-3.13-8.98-15.09-32.46-51.37-38.66-61.39-.36-.93,3.22-.59,3.94-.46,1.83.36,2.96.45,3.86,1.55,2.93,4.66,24.9,39.74,37.2,59.29,2.31,4.14,5.25,5.28,9.57,4.22,2.79-.63,7.43-1.35,7.88-4.13.11-5.21-4.83-9.6-7.34-13.93-9.26-13.78-18.48-27.5-27.74-41.33-2.62-3.57,3.19-1.93,4.82-1.34,2,.79,2.84,2.19,3.67,3.41,3.34,4.94,8.19,12.1,11.82,17.44,2.69,3.86,5.07,7.68,7.8,11.48.67.79,1.43,2.14,2.43,2.29.22-.08.19-.15.25-.31.1-1.27-.53-2.74-.96-4.01-3.15-8.53-7.56-16.38-12.19-23.99-.58-1-1.34-2.1-1.82-3.07-.29-.59-.38-1.02-.12-1.25,1.84-.63,4.93.53,7.61.79,1.67.28,3.24.53,4.89.81,2.48.41,5.34.88,7.87,1.3,2.62.36,4.83.78,6.13,2.8,5.55,8.77,9.54,18.63,11.84,28.71,3.2,16.01,4.29,37.39-14.39,43.34ZM407.51,154.61c-.55,5.59-2.75,10.99-6.63,14.94-17.18,16.42-43.07,8.27-63.9,5.15-13.75-1.86-27.64-4.24-41.27-6.54-10.56-1.27-22.25-3.8-30.83,3.73-2.87,2.75-4.49,5.98-4.41,9.51.24,8.82,8.75,27.81,14.63,41,.98,2.26-.16,2.37-1.94,2.09-2.71-.44-7.39-1.25-10.49-1.77-2.01-.33-3.25-.6-4.04-1.41l-.1-.11c-.71-.76-1.27-2.14-1.75-3.26-4.35-10.51-9.4-21.01-11.3-30.61-4.03-18.88,4.94-35.83,24.69-40.51,7.83-2.22,15.57-1.74,24.06-.84,25.59,2.66,48.79,9.77,69.73,11.81,5.27.43,10.26.37,15.38-.12,5.99-.53,11.42-1.51,16.31-4.77,5.26-3.26,7.26-9.24,8.54-15.01.38-1.4,1.46-3.4,2.46-1.14,1.55,5.73,1.37,11.97.86,17.87Z"/>
  <text class="cls-2" transform="translate(50.62 222.46) rotate(-80.6) scale(.91 1)"><tspan x="0" y="0">B</tspan></text>
  <text class="cls-2" transform="translate(59.02 178.23) rotate(-73.01) scale(.91 1)"><tspan x="0" y="0">i</tspan></text>
  <text class="cls-2" transform="translate(61.92 166.21) rotate(-66.41) scale(.91 1)"><tspan x="0" y="0">o</tspan></text>
  <text class="cls-2" transform="translate(77.47 132.14) rotate(-59.23) scale(.91 1)"><tspan x="0" y="0"> </tspan></text>
  <text class="cls-2" transform="translate(85.84 116.94) rotate(-52.29) scale(.91 1)"><tspan x="0" y="0">b</tspan></text>
  <text class="cls-2" transform="translate(106.81 89.48) rotate(-43.23) scale(.91 1)"><tspan x="0" y="0">a</tspan></text>
  <text class="cls-2" transform="translate(131.9 65.55) rotate(-34.39) scale(.91 1)"><tspan x="0" y="0">c</tspan></text>
</svg>