<?xml version="1.0" encoding="UTF-8"?>
<svg id="Capa_1" data-name="Capa 1" xmlns="http://www.w3.org/2000/svg" viewBox="0 0 571.07 528.67">
  <defs>
    <style>
      .cls-1, .cls-2, .cls-3 {
        fill: #f9b03c;
      }

      .cls-2 {
        font-family: Orbitron-Black, Orbitron;
        font-weight: 800;
      }

      .cls-2, .cls-3 {
        font-size: 66.76px;
      }

      .cls-3 {
        font-family: MyriadPro-Bold, 'Myriad Pro';
        font-weight: 700;
      }
    </style>
  </defs>
  <text class="cls-2" transform="translate(69.66 281.66) rotate(-82.45) scale(.91 1)"><tspan x="0" y="0">V</tspan></text>
  <text class="cls-2" transform="translate(79.33 222.06) rotate(-73.68) scale(.91 1)"><tspan x="0" y="0">i</tspan></text>
  <text class="cls-2" transform="translate(82.11 208.67) rotate(-66.43) scale(.91 1)"><tspan x="0" y="0">v</tspan></text>
  <text class="cls-2" transform="translate(101.18 165.45) rotate(-56.1) scale(.91 1)"><tspan x="0" y="0">e</tspan></text>
  <text class="cls-3" transform="translate(125.24 131.09) rotate(-49.85) scale(.91 1)"><tspan x="0" y="0"> </tspan></text>
  <text class="cls-2" transform="translate(132.54 121.27) rotate(-43.81) scale(.91 1)"><tspan x="0" y="0">b</tspan></text>
  <text class="cls-2" transform="translate(160.18 94.44) rotate(-34.83) scale(.91 1)"><tspan x="0" y="0">a</tspan></text>
  <text class="cls-2" transform="translate(191.76 72.12) rotate(-26) scale(.91 1)"><tspan x="0" y="0">c</tspan></text>
  <path class="cls-1" d="M328.65,62.86c.12,27.01.48,54.96.9,59.06,72.85.23,141.81,52.17,159.14,123.79,6.85,27.95,6.04,57.07,4.79,85.61l-.47,1.02c6.66-7.42,15.38-17.19,21.79-24.34,1.07-1.18,1.76-2.06,2.43-2.67,9.51-8.76-16.48,32.82-18.9,37.79-.44,1.19,2.01.82,2.94.97,12.85.56,20.99,1.54,33.57,4.14,5.65,1.18-18.56,7.3-29.87,7.62-1.82.08-4.08.38-5.73.61-.9.15-1.35.27-1.36.6,1.78,5.72,14.52,36.08,15.15,39.86,1.38,8.33-14.53-17-21.36-26.15-.09-.07-.17-.08-.23,0-.25.39-.27,2.36-.32,3.23-.63,15.32-3.11,30.9-7.47,45.56-.2.66-1.17.58-1.25-.11-1.2-9.96-5.01-41.73-6.08-50.57l-.82,1.81c-56.49,98.37-204.85,120.61-275.13,30.35-22.78-29.26-30.32-56.68-34.75-77.43-2.08-9.72-3-37.48-3-37.48-4.68,3.78-29.85,28.92-35.04,31.42-8.4-.36,33.55-54.46,34.65-58.25-3.56-1.08-46.57-14.68-48.37-15.51-4.51-2.06,9.3-3.6,12.61-4.01,15.85-1.99,36.81-3.39,37.47-4.36.53-.79-14.86-48.75-17.1-56.2-1.62-5.39,2.15-.89,2.41-.48,3.97,5.86,25.55,36.54,24.75,41.14,4.23-24.5,6.68-36.37,9.6-59.27.39-2.45,3.99-26.49,5.43-19.15.8,4.1,1.61,19.15,3.09,49.1.11,2.14.38,2.71,1.36,1.6,28.46-38.6,74.26-64.6,122.4-68.2,1.5-.24,2.84-.57,3.38-1.53.04-3.84.17-33.19.27-59.57-122.83,2.03-220.51,102.27-220.51,225.61s101,225.64,225.59,225.64,225.59-101.02,225.59-225.64-97.99-224.42-221.55-225.61Z"/>
  <path class="cls-1" d="M254.71,150.02c1.73-.92,3.53-1.85,5.52-2.86-1.35,1.45-5.59,6.01-5.59,6.01,0-.61.06-2.74.07-3.15Z"/>
  <path class="cls-1" d="M194.48,218.39c-.03-.89-.08-1.83-.12-2.8-.17-3.4-.35-7.26.06-9.66l.03-.13c.5-1.83,2.32-4.23,3.92-6.34.41-.53.8-1.05,1.16-1.55,2.94-3.9,5.71-7.39,8.45-10.64.28-.31.58-.68.88-1.05.56-.69,1.41-1.74,1.84-1.74.1,0,.25.07.42.2,1.85,1.62,3.74,3.02,5.85,4.34l.09.07c.27.21,1.03.8,1.26,1.16-1.37,1.5-4.98,5.82-9.14,10.82-4.95,5.94-11.32,13.58-14.7,17.33Z"/>
  <path class="cls-1" d="M311.36,347.35c-1.27,0-2.53-.02-3.66-.04-14.09-.32-27.16-1.54-38.85-3.63-.63-.15-1.41-.29-2.22-.44-2.09-.39-4.43-.82-5.79-1.63-.62-2.57-1.22-6.61-1.8-10.51-.37-2.47-.75-5.03-1.13-7.17l-1.57-9.84c-.62-3.86-1.14-7.13-1.43-9,4.59.73,9.24,1.59,13.76,2.43,7.64,1.41,15.54,2.87,23.37,3.76,5.49.83,11.18,1.1,16.69,1.38,2.58.13,5.24.26,7.83.44.01.06.05.21.09.47.23,2.14.38,13.59.39,15.03.02,2.16.12,5.15.22,8.04.14,4.13.29,8.38.21,10.48-.12.01-.33.03-.5.04-.25.02-.54.04-.85.09-1.19.08-2.82.12-4.76.12Z"/>
  <path class="cls-1" d="M223.76,184.59c-.17-.02-.73-.45-1.06-.7-.35-.27-.72-.54-1.11-.79-.89-.67-2.01-1.56-3.03-2.36l-1.05-.82c-.5-.39-1.07-.89-1.12-1.2,7.16-8.86,17.19-16.82,31.45-24.94.08.68.19,1.35.3,2.02.38,2.32.74,4.51-.3,6.23-1.76,2.47-5.59,7.61-9.19,12.41.19-.35.37-.71.55-1.08.21-.42.6-1.21.14-1.94l-.38-.61-.79-.04c-.64,0-1.14.39-1.92,1.03-.13.11-.24.2-.32.26l-.09.07-.12.11c-2.35,2.35-6.82,7.03-9.78,10.12l-2.09,2.19s-.1.06-.1.06Z"/>
  <path class="cls-1" d="M291,141.08c-.8-.52-1.98-1.58-2.76-2.28-.31-.34-.7-.68-1.07-1.02-.22-.19-.52-.45-.76-.69.03,0,.17-.03.17-.03l.06-.02c2.8-.76,6.22-1.65,9.21-2.24-.71.78-1.6,2-2.54,3.28-.72.98-1.47,2-2.06,2.71-.08.09-.16.18-.24.28Z"/>
  <path class="cls-1" d="M223.95,332.48c-3.68-.78-8.28-2.85-11.54-4.32l-.63-.28c-2.63-1.21-3.28-1.93-3.66-4.02-.83-4.13-1.32-8.45-1.8-12.63-.17-1.48-.34-2.99-.53-4.51,1.09,1.53,2.4,3.35,3.84,5.37,4.74,6.61,10.98,15.32,14.33,20.4Z"/>
  <path class="cls-1" d="M271.77,167.23c-1.67,0-3.98-1.37-6.03-2.58-1.09-.64-2.12-1.25-3.04-1.65-2.08-1-2.42-1.61-2.47-1.82-.13-.59,1.02-2.01,1.95-3.16,2.83-3.42,6.3-6.84,9.65-10.16,1.9-1.88,3.87-3.82,5.71-5.75.2-.2.69-.72.98-.87.4.22.78.71,1.19,1.23.38.49.81,1.04,1.35,1.48.4.44.91.88,1.44,1.34.92.79,2.28,1.97,2.27,2.72-3.07,5.14-9.21,14.91-11.55,18.57-.32.41-.79.63-1.45.63h0Z"/>
  <path class="cls-1" d="M322.49,449.05c-4.05,0-8.39-.39-12.22-.74-1.58-.14-3.08-.28-4.46-.38l-.17-.02c-2.62-.28-6.21-.66-8.3-1.42-.58-.22-.78-.42-1.09-1.11-.84-1.9-2.49-6.4-3.36-8.93-.14-.42-.34-1.01-.42-1.4.03,0,.06,0,.1,0,.31,0,.71.04,1.13.11,9.63,1.5,19.17,1.8,30.55,1.8h.95c.94,0,1.8.01,2.35.29,1.63,1.49,2.43,4.18,3.14,6.57.21.71.41,1.39.63,2.01.2.63.17,1.25-.08,1.71-.23.41-.64.7-1.23.86-2.01.43-4.49.65-7.52.65h0Z"/>
  <path class="cls-1" d="M389.67,336.63c-.45,0-.6-.05-.63-.66-.07-1.64.07-3.42.21-5.14.09-1.15.19-2.35.22-3.51.1-2.33.13-4.85.16-7.29.05-4.37.1-8.89.57-12.91.26-2.59,1.03-3.49,3.46-4.07,14-4.01,26.66-9,37.71-14.86,1.48-.67,3.08-1.63,4.63-2.55,2-1.2,4.05-2.43,6-3.11.03.3.06.67.08,1,.06.81.14,1.83.35,3.04l1.09,9.24c.67,5.61,1.32,11.13,1.55,13.07.17,2,.24,3.81-.62,5.3-1.79,2.33-4.67,3.56-7.73,4.85-1.17.49-2.37,1.01-3.51,1.59-14.72,6.7-29,12.03-42.39,15.8-.47.16-.85.23-1.16.23h0Z"/>
  <path class="cls-1" d="M285.2,443.21c-1.2,0-2.61-.41-3.97-.8-.6-.17-1.18-.34-1.71-.46-5-1.69-9.64-4.01-14.55-6.47-2.04-1.02-4.09-2.05-6.18-3.03-6.86-3.44-13.03-6.61-18.81-10.37-.09-.08-.23-.18-.41-.3,10.62,3.67,21.6,7.41,32.91,9.43.67.11,1.32.19,1.97.27,2.41.3,4.68.58,6.46,1.97,2.35,1.67,5.71,7.16,5.25,9.65-.28.07-.59.11-.95.11h0Z"/>
  <path class="cls-1" d="M198.73,322.99c-.42-.12-.98-.42-1.46-.66-.48-.25-.97-.51-1.47-.69-.33-.17-.67-.33-1-.49-1.85-.88-2.74-1.37-2.85-2.78-.18-7.75.84-15.71,1.82-23.4.24-1.91.49-3.82.71-5.72,0-.02,0-.04,0-.06.42.6.91,1.45,1.22,2.23,1.1,2.83,1.13,7.62,1.17,11.85.01,1.96.03,3.82.14,5.49.03,1.98.47,4.22.91,6.39.54,2.73,1.1,5.55.81,7.85Z"/>
  <path class="cls-1" d="M239.06,412.53c-19.13-2.45-33.23-20.83-43.43-36.72l-.09-.14c-.67-1.06-1.58-2.5-2.3-3.73,2.62,1.05,5.35,2.05,7.99,3.02,4.7,1.72,9.56,3.5,14.14,5.72,2.05.96,3.76,2.26,5.12,3.86,4.98,5.97,11.12,15.14,14.86,21.19.78,1.31,2.61,4.47,3.71,6.8Z"/>
  <path class="cls-1" d="M212.19,370.61c-.42,0-1.15-.09-2.31-.51-4.64-1.59-11.09-4.44-19.19-8.47-.39-.24-.82-.45-1.24-.65-1.07-.52-1.77-.89-1.75-1.36.21-2.16,2.7-27.88,2.7-27.88.09-.82.16-1.57.21-2.21.03-.34.06-.68.09-.97,2.78.82,6.16,1.84,8.41,2.95,1.04.52,1.51,1.7,1.89,3.3,2.64,10.62,6.73,20.9,10.68,30.84l.86,2.16c.78,1.97.44,2.55.4,2.61-.09.13-.37.21-.76.21h0Z"/>
  <path class="cls-1" d="M314.98,152.49c-5.72,0-15.54-3.87-17.46-6.81.11-.14.45-.49.72-.78.26-.28.56-.59.88-.96,2.73-2.95,6.81-7.36,9.37-10.12.87-.92,1.75-1.11,3.67-1.45l.71-.13c.6-.03,1.24-.11,1.89-.2.8-.1,1.62-.21,2.37-.21.68,0,1.22.09,1.67.27.39,1.03.34,2.39.29,3.83-.04,1.01-.07,2.05.05,3.04.06,3.14,0,5.87-.2,8.47-.13,1.74-.28,3.87-1.26,4.58-.31.18-1.12.47-2.7.47h0Z"/>
  <path class="cls-1" d="M276.12,423.55c-1.85,0-4.52-.77-6.47-1.33-.91-.26-1.69-.49-2.26-.6-4.21-1.21-9.78-2.91-12.5-3.91-.96-.35-1.45-.66-1.96-1.24-1.75-2.47-3.66-5.04-5.68-7.76-5.28-7.11-10.74-14.46-14.6-21.73-.11-.21-.2-.39-.26-.53.12.03.25.07.41.11,6.33,1.99,13.14,4.04,20.09,5.66,3.94.93,7.96,1.7,11.95,2.3.77.13,1.31.32,1.66.6l.15.12c.3.26.59.75.88,1.49,1.26,3.51,2.74,7.08,4.03,10.11l.5,1.18c2.01,4.76,3.91,9.25,5.39,14.01.2.68.16,1.08.07,1.21-.11.15-.54.32-1.39.32h0Z"/>
  <path class="cls-1" d="M261.68,385.89c-.57,0-1.3-.14-2.15-.42-4.12-1.27-8.37-2.37-12.48-3.42-4.24-1.09-8.62-2.22-12.79-3.52-5.87-1.46-10.02-4.96-11.75-9.87-5.02-11.02-8.81-21.16-11.64-31.11-.18-.56-.27-.94-.31-1.19.1.03.21.07.35.12,2.05.75,4.23,1.43,6.34,2.08,3.44,1.06,7,2.16,10.18,3.66,3.04,1.39,5.66,3.29,7.59,5.5l.05.06s.16.15.22.21c.34.34.85.86,1.64.86h.2l.29-.07.23-.07.36-.29.18-.23c.42-.66.37-1.42.33-2.1,0-.1-.01-.23-.02-.36,2.28.26,5.96,1.25,8.7,1.99l1.45.39c5.3,1.51,6.11,3.14,6.48,8.83.69,5.01,2.28,9.15,3.96,13.54.44,1.16.89,2.33,1.33,3.52.14.43.35,1,.59,1.65.98,2.65,3.01,8.17,1.85,9.82-.08.12-.3.43-1.15.43h0Z"/>
  <path class="cls-1" d="M313.53,303.68c-16.56-.53-34.72-2.8-57.15-7.16-.64-.15-1.1-.37-1.37-.64l-.11-.13c-.39-.46-.52-1.46-.58-2.17-1.01-10.86-.52-21.69.1-30.86.02-1.74.61-1.74.87-1.74.24,0,.53.06.86.17,2.5.73,4.95,1.51,7.41,2.28,5.41,1.71,11.01,3.47,16.7,4.67,9.55,2.17,19.06,3.48,31.77,4.38,1.18.11,3.21.29,3.82,1.16.48.63.54,1.77.56,2.15.17,4.34.13,8.82.09,13.15-.03,3.14-.06,6.38-.01,9.56-.02.51.04,1.1.09,1.67.14,1.65.18,2.69-.57,3.18-.19.11-.75.34-2.05.34,0,0-.28,0-.42,0Z"/>
  <path class="cls-1" d="M312.82,263.8c-.23,0-.45,0-.66-.02-8.51-.49-17.6-1.7-26.98-3.59-2.73-.58-5.65-1.15-8.6-1.74-4.13-.82-8.38-1.66-12.28-2.53,22.93-2.69,32.56-4.62,34.27-6.84.42-.55.45-1.08.4-1.43l-.06-.44-.32-.31c-1.71-1.67-10.63-2.72-29.97-4.43-3.13-.28-5.94-.52-8.07-.74-1.14-.06-2.63-.2-3.2-.89-.29-.35-.39-.92-.28-1.7.86-7.26,2.33-14.41,4.4-21.29.24-.91.74-1.93,1.85-1.93.19,0,.41.03.63.08,3.09.81,6.23,1.78,9.27,2.72,6.4,1.98,13.02,4.02,19.89,4.83,6.07,1.02,13.35,2.09,20.85,2.21,1.58.01,2.03.23,2.17.35l.11.11s.27.36.3,1.35c.03,3.36.02,6.81.01,10.25,0,2.44-.01,4.87,0,7.29,0,1.75.06,3.61.11,5.4.09,2.97.19,6.04.02,8.92-.11,1.56-.35,3.12-1.35,3.81-.53.37-1.35.55-2.51.55h0Z"/>
  <path class="cls-1" d="M382.25,387.18c-.08,0-.15,0-.19-.01-.03-.2-.04-.66.13-1.58.23-1.32.46-2.61.69-3.91,1.18-6.62,2.39-13.48,2.72-20.34.16-1.22.23-2.61.3-3.95.19-3.72.39-7.56,2.56-10.26,1.73-1.48,4.18-2.29,6.55-3.07.85-.28,1.69-.56,2.49-.86,2.37-.78,4.82-1.54,7.27-2.3,2.06-.64,4.13-1.28,6.18-1.94,11.41-3.62,21.96-8.9,30.77-13.59.65-.38,1.03-.53,1.24-.58.01.08.02.17.03.3.58,8.61.13,18.04-1.36,28.84-.19,1.02-.34,2.14-.49,3.28-.57,4.14-1.16,8.43-3.85,11.22-2.47,2.46-6.39,4.15-9.85,5.63l-.9.39c-12.58,5.24-27.71,9.62-43.74,12.68-.15.02-.34.04-.51.04h0Z"/>
  <path class="cls-1" d="M315.49,180.65c-3.96-.26-8.22-.92-12.65-1.95-7.5-1.95-15.43-4.26-22.57-7.87.57-.9,1.63-2.51,2.88-4.42,0,0,3.94-6.02,4.65-7.12,1.41-2.17,2.87-4.4,3.89-5.9.1.02.26.06.53.15,1.38.49,3.03,1.35,4.5,2.11l1.07.55c4.48,2.32,9.99,3.94,15.49,4.57.56.08,1.16.08,1.74.08,1.02,0,1.98.01,2.58.44.96,1.35.74,3.49.53,5.57-.09.85-.18,1.73-.18,2.54-.08,1.17-.07,2.5-.06,3.78.02,1.93.03,3.93-.27,5.77-.11.7-.32,1.23-.57,1.43l-.13.09c-.11.07-.44.2-1.11.2-.11,0-.21,0-.31,0Z"/>
  <path class="cls-1" d="M255.37,202.73c-1.37,0-2.98-.7-4.39-1.32l-.16-.07c-3.37-1.67-6.9-3.76-10.32-5.78-1.4-.83-2.8-1.65-4.17-2.44.38-.54.92-1.28,1.55-2.14.66-.9,1.42-1.95,2.25-3.11l6.05-8.38c3.61-5,7.04-9.75,8.23-11.39.13-.15.32-.23.6-.23.92,0,2.31.92,3.32,1.58.31.21.61.4.87.56,1.69,1.23,3.67,2.14,5.58,3.02,1.39.64,2.7,1.25,3.94,1.98,0,0,.17.12.19.2,0,.04.05.41-.65,1.34-3.42,4.81-5.62,10.54-7.74,16.09-.63,1.24-1.05,2.78-1.45,4.27-.6,2.21-1.17,4.3-2.47,5.57-.36.17-.76.25-1.23.25h0Z"/>
  <path class="cls-1" d="M315.5,216.95c-10.79,0-21.79-1.91-30.16-3.57-1.25-.31-2.66-.63-4.13-.96-5.62-1.26-11.99-2.68-16.03-5.51-.38-.47-.4-1.42-.04-2.57,2.38-6.64,5.39-13.32,8.31-19.78.78-1.74,1.57-3.47,2.34-5.21.24-.51.42-.51.49-.51.47,0,1.32.5,2,.89.5.3,1.02.6,1.54.82,7.91,3.45,21.84,6.82,31.35,8.66.9.22,1.91.32,2.88.42.94.09,1.84.18,2.59.38.02.22.02.57.01.86v.4c-.02,2.66-.02,6.57-.03,10.64-.01,4.71-.02,9.65-.04,13.16-.02.44-.01.87,0,1.24,0,.21,0,.45,0,.64-.36,0-.72,0-1.08,0Z"/>
  <path class="cls-1" d="M250.51,339.83c-.67,0-1.53-.17-2.06-.31-3.51-.85-8.77-2.52-11.84-3.64-.22-.1-.53-.22-.83-.34-.94-.36-1.47-.59-1.69-1.05-1.32-3.56-3.32-8.8-5.49-14.51-3.25-8.53-6.88-18.07-9.35-24.85,5.02,1.49,12.88,3.92,18.87,5.78,3.22,1,5.83,1.81,7.04,2.17.48,3.32,1.29,7.96,2.14,12.85,1.57,9.04,3.51,20.19,3.44,23.9-.06,0-.14,0-.23,0h0Z"/>
  <path class="cls-1" d="M244.78,293.17c-.47,0-1.07-.11-1.68-.31-4.16-1.37-8.46-2.45-12.62-3.5-4.12-1.03-8.38-2.1-12.42-3.44-1.1-.37-2.34-.85-3.02-1.68-2.33-4.09-5.02-10.58-6.56-15.83l-.13-.63c-.72-3.24-.62-3.96.67-4.36,10.19-1.89,23.48-4.13,36.51-4.92-.08,1.41-.29,4.14-.48,6.65-.13,1.75-.26,3.4-.32,4.41-.22,5.03-.08,10.54.4,15.96.08.82.22,1.65.36,2.44.27,1.56.52,3.04.35,4.41-.05.48-.16.8-1.05.8h0Z"/>
  <path class="cls-1" d="M244.88,240.65c-.57,0-1.14-.04-1.66-.08-4.13-.64-8.41-1-12.54-1.35-4.52-.38-9.18-.78-13.73-1.54-.7-.06-1.11-.2-1.24-.4-.13-.21-.16-.75.17-1.67,3.82-12.03,9.51-24.22,16.47-35.33,1.85.96,5.83,3.15,10.03,5.45,2.81,1.54,5.67,3.1,7.92,4.32.48.33,1.1.63,1.75.95.58.28,1.6.78,1.95,1.1-.51,2.96-1.23,5.67-1.99,8.53-.91,3.43-1.86,6.98-2.39,10.98-.21.85-.36,1.76-.52,2.71-.38,2.28-.76,4.64-2,5.95-.33.18-.97.37-2.21.37h0Z"/>
  <path class="cls-1" d="M206.4,237.67c.19.17.64-.98,1.41-2.49,5.99-12.65,13.9-26.58,18.86-39.76l-.04-.05c-2.06.47-21.99,33.98-20.23,42.3Z"/>
  <path class="cls-1" d="M209.38,228.98c2.52-6.78,7.21-15.72,11.18-22.52-2.36,5.07-4.94,10.17-7.48,15.17-1.28,2.52-2.51,4.95-3.7,7.35Z"/>
  <path class="cls-1" d="M370.38,174.71c-.5,0-1.03-1.45-1.38-2.41-.2-.55-.41-1.12-.65-1.62-2.24-6.07-4.83-12.59-8.58-19.19-.06-.13-.17-.36-.3-.59-.44-.84-.63-1.29-.47-1.46.63-.59,2.2-1.8,3.85-3.08,1.05-.81,2.18-1.69,3.26-2.55.79-.51,1.58-1.19,2.34-1.84,1.22-1.05,2.6-2.24,3.52-2.24.02,0,.06,0,.06,0,.05.02.24.12.47.36,1.33,1.79,3.82,4.77,6.7,8.21,4.72,5.64,10.59,12.66,12.03,15.38.37,1.18-.58,1.87-3.5,3.31-.78.38-1.58.78-2.31,1.22-4.66,2.29-9.95,4.89-14.71,6.43-.14.05-.24.07-.32.07h0Z"/>
  <path class="cls-1" d="M329.09,182.19c-1.07,0-1.85-.1-2.45-.32-.05-.26-.03-.86-.01-1.36.02-.49.04-1.06.03-1.7.03-1.61.06-3.97.1-6.46.07-4.51.14-9.45.2-11.48.23-.07.72-.11,1.03-.13.31-.02.61-.04.89-.08,5.27-.43,11.12-1.97,16.84-4.43.63-.21,1.38-.61,2.16-1.03,1.12-.6,2.39-1.28,3.3-1.28.09,0,.17,0,.24.02,1.69,2.19,3,5.07,4.27,7.86.62,1.36,1.26,2.77,1.93,4.05,1.27,2.88,2.62,5.94,3.64,9.24l.06.23c.12.44.43,1.55.33,1.94-1.78,1.06-4.53,1.56-6.97,2.01-1.04.19-2.04.37-2.95.59-6.52,1.08-13.84,1.9-20.01,2.25-.3,0-.65.02-1.01.04-.53.02-1.08.05-1.63.05Z"/>
  <path class="cls-1" d="M354.09,140.94c-1.27-1.74-4.19-5.79-5.91-8.19.37,0,.75-.02,1.13-.03.81-.02,1.64-.04,2.43-.04.61,0,1.2.01,1.73.05l.21.02c2.4.26,7,1.21,9.28,2.19l-7.88,5.34c-.37.21-.71.46-.99.67Z"/>
  <path class="cls-1" d="M327.39,151.98c-.01-.36.01-.82.03-1.2.03-.75.08-1.69.01-2.76v-16.22c.01-.23.01-.46.01-.67l6.1.56c.47.07,1,.11,1.5.14,1.11.07,1.73.12,2.21.56.46.57.91,1.28,1.38,2.04.69,1.1,1.4,2.23,2.29,3.15.42.53.98,1.14,1.58,1.8,1.57,1.72,4.21,4.6,4.1,6.18-.01.18-.06.38-.3.61-4.69,2.58-13.41,5.46-18.92,5.82Z"/>
  <path class="cls-1" d="M399.72,159.31c-2.06-1.72-5.99-7.23-9.17-11.7-1.37-1.93-2.69-3.78-3.81-5.27,7.74,2.19,14.99,6.48,21.5,10.44-.04.03-.07.05-.1.08-.23.18-.49.38-.77.61l-5.12,4.05c-.44.3-.85.65-1.22.97-.67.57-.95.79-1.3.82Z"/>
  <path class="cls-1" d="M422.2,195.22c-.15,0-.62,0-1.38-1.18-.94-1.46-1.82-3.1-2.76-4.83-.93-1.73-1.89-3.51-2.92-5.11-1.87-3.01-3.89-6.06-5.85-9-1.37-2.06-2.74-4.13-4.07-6.2-.7-1.03-.89-1.83-.56-2.38.8-1.16,1.73-1.83,3.13-2.83.63-.45,1.32-.95,2.11-1.57.52-.34,1.23-.87,1.96-1.42,1.39-1.05,3.12-2.35,4.19-2.64,1.46.08,3.28,1.25,4.74,2.2l.29.19c4.09,2.87,8.09,6.54,11.95,10.09,2.69,2.47,5.46,5.02,8.3,7.33.25.24.24.41.24.46-.06.88-2.11,2.36-3.34,3.24-.83.6-1.56,1.13-2.07,1.64-2.13,1.61-4.17,3.64-6.14,5.6-2.05,2.04-4.16,4.15-6.38,5.78-.75.53-1.2.64-1.45.64h0Z"/>
  <path class="cls-1" d="M436.18,226.92c-.49-1.12-1.27-2.91-2.19-5.02-.84-1.94-3.81-8.73-3.81-8.73-1.46-3.36-3.19-7.32-4.18-9.65-.04-.55,1.42-1.41,2.31-1.93.67-.39,1.31-.76,1.79-1.19,3.25-2.34,6.32-5.46,9.28-8.47,2.56-2.6,5.2-5.28,7.99-7.48.78.97,2.15,2.77,3.71,4.82,1.21,1.59,2.57,3.37,3.94,5.15l7.63,9.97c.69.86.84,1.25.87,1.39-.53.43-1.54,1.2-2.85,2.21-.91.7-1.97,1.51-3.12,2.41-3.61,2.78-7.69,5.94-11.5,8.88-3.83,2.96-7.38,5.7-9.87,7.62Z"/>
  <path class="cls-1" d="M318.68,392.28c-2.44,0-5-.27-7.48-.54-1.56-.17-3.17-.34-4.7-.44l-.73-.05c-6.47-.42-23.65-1.55-30.32-2.91l-.46-.1c-1.11-.24-1.68-.41-1.7-.7v-.13s-2.09-7.23-3.79-13.14c-2.5-8.67-5.46-18.95-6.63-23.03.05.01.09.02.14.03.33.07.64.13.88.16,17.13,3.42,34.54,5.17,51.64,5.17,1.06,0,2.11,0,3.17-.02.3,4.06.66,9.83,1,15.42.2,3.24.39,6.39.57,9.05l.6,9.62c.01.39.04.76.07,1.08.01.13.02.28.03.41-.16.03-.4.07-.78.1-.47.02-.98.04-1.51.04Z"/>
  <path class="cls-1" d="M448.37,268.1c-.72-2.72-1.51-5.76-2.31-8.84l-1.52-5.83c-.65-2.46-1.43-5.46-2.19-8.38-.83-3.19-1.63-6.28-2.21-8.45l-.02-.09-.04-.09c-.27-.63,0-1.05,1.55-2.36l.39-.33c7.82-5.19,14.87-11.47,21.7-17.54l2.5-2.22c.54-.51.93-.69,1.11-.69s.54.34.88,1.1c4.79,9.68,9.29,19.15,11.91,29.19-.59.48-1.66,1.3-3.05,2.37-1.08.83-2.35,1.81-3.76,2.9,0,0-22.62,17.46-24.94,19.25Z"/>
  <path class="cls-1" d="M328.59,264.05c-1.09,0-2.19-.02-3.28-.05,0-1.94,0-5.91-.01-10.69-.02-8.96-.04-21.03.05-27.27,11.23-.72,43.58-2.22,49.71-2.49,0,.02,0,.04,0,.05.03.26.06.55.13.86.19,1.82.67,3.91,1.13,5.93l.21.93c.69,2.82.93,5.82,1.16,8.71.16,1.94.32,3.94.61,5.91.09.62.19,1.26.3,1.91.35,2.15.72,4.37.6,6.4-.09,1.42-.45,1.81-2.09,2.34-3.76,1.2-8.41,2.21-12.51,3.1l-.66.14c-9.77,1.95-22.63,4.2-35.35,4.2h0Z"/>
  <path class="cls-1" d="M320.91,428.68c-3.63,0-7.43-.52-11.11-1.03-2.16-.3-4.39-.61-6.5-.79-1.29-.07-2.58-.1-3.88-.13-2.47-.05-5.03-.11-7.39-.47-2.18-.38-3.31-.7-4.16-1.99-2.52-4.31-5.36-11.72-7.24-16.63-.88-2.37-2.9-7.83-3.51-10.31.32,0,.67.05.96.09,1.94.25,3.87.5,5.8.75,6.81.89,13.86,1.82,20.82,2.43,5.81.52,11.08.78,16.09.8,1.06.01,1.41.17,1.52.27l.09.09s0,0,0,0c0,0,.24.28.31,1.43.25,4.14.72,8.51,1.41,12.97.18,1.5.56,3.01.93,4.48.55,2.16,1.06,4.2.98,6.24-.07,1.16-.42,1.5-1.68,1.61-1.1.12-2.22.18-3.44.18h0Z"/>
  <path class="cls-1" d="M328.12,216.83c-.69,0-1.6-.03-2.22-.29-.04-.42-.02-.96,0-1.64.03-.72.06-1.57.03-2.6.03-2.62.06-6.02.08-9.38.04-5.2.07-10.12.13-12.1.42-.08,1.31-.13,1.73-.15h.3c1.86-.1,3.75-.13,5.64-.17,5.13-.1,10.43-.2,15.56-1.23,1.82-.34,3.67-.76,5.45-1.16,1.39-.31,2.78-.62,4.18-.91.58-.07,1.27-.22,1.94-.36.94-.2,1.91-.41,2.75-.41.47,0,.86.06,1.2.2l.07.04c.25.17.54.75.84,1.69.44,1.38.89,2.76,1.35,4.14,2.08,6.36,4.24,12.94,5.56,19.41.26,1.42,0,1.9-.18,2.06-.14.13-.46.33-1.25.45-4.53.45-9.29.6-13.89.75-4.6.15-9.36.3-13.99.75l-1.77.16c-3.41.3-6.93.61-10.34.72-.11-.01-.34-.02-.59-.02-.4,0-.82.01-1.25.03-.43.02-.88.03-1.31.03Z"/>
  <path class="cls-1" d="M339.69,428.48c-1.21,0-2.42-.02-3.61-.07-.12-.02-.21-.03-.28-.05-.1-.45-.24-1.34-.41-2.44-.13-.79-.27-1.7-.44-2.69-.82-5.03-2.91-17.92-3.55-21.88.08,0,.16,0,.25-.01.32-.02.67-.04,1.08-.07l30.26-2.15c1.7-.12,3.26-.23,4.57-.33,1.16-.08,2.14-.16,2.88-.2-.35,1.94-.68,3.9-1,5.85-.87,5.19-1.68,10.09-3.09,15.31-.19.6-.36,1.29-.53,1.97-.46,1.88-.9,3.65-2.1,4.75-.81.62-2.2.74-3.55.86-.32.03-.64.06-.96.09l-2.83.21c-5.53.41-11.24.84-16.7.84h0Z"/>
  <path class="cls-1" d="M327.42,347.81c-.06-.66-.1-1.68-.15-2.91-.04-1.09-.09-2.37-.17-3.76-.07-4.1-.36-9.03-.65-13.79-.34-5.63-.69-11.42-.49-14.06,5.3-.57,10.75-.98,16.03-1.38,12.57-.95,25.56-1.92,37.92-5.11.21-.04.45-.07.64-.07s.26.03.26.03l.04.04s-.02-.01-.02-.01c-.02,0,.06.15.1.54.33,4.39-.05,9.26-.42,13.96-.14,1.78-.28,3.53-.37,5.21-.11,1.26-.07,2.67-.02,4.15.11,3.38.21,6.88-1.59,8.96-3.06,1.6-7.24,2.24-11.29,2.85-1.51.23-2.93.45-4.29.71-10.33,1.7-22.08,3.63-33.59,4.51-.01,0-.03,0-.04,0-.22,0-.54.03-.87.06-.3.03-.61.06-.91.06-.05,0-.09,0-.13,0Z"/>
  <path class="cls-1" d="M331.76,392.53c-.14,0-.28-.01-.44-.01h-.72c-.3,0-.49,0-.62-.02-.24-2.98-.53-7.43-.8-11.73l-.99-15.19c-.26-3.96-.48-7.2-.57-8.73,5.88-.81,16.62-2.29,27.37-3.76,8.56-1.17,17.12-2.35,23.24-3.19-1.86,13.67-3.49,24.81-5.12,34.96-.18,1.05-.49,2.37-1.3,3.12-1.41,1.26-3.73,1.54-5.97,1.82-.43.05-.86.1-1.27.16-9.98,1.18-21.71,2.41-32.82,2.58Z"/>
  <path class="cls-1" d="M453.42,309.91c-.03-.64-.08-1.42-.2-2.36-.26-3.54-.63-7.8-.99-11.95-.55-6.28-1.07-12.21-1.17-15.32-.12-1.4.24-3.13,1.56-4.02.8-.61,1.52-1.19,2.25-1.76,1.75-1.39,3.57-2.82,5.39-4.08,4.83-3.2,9.17-7.17,13.37-11.02,1.81-1.66,3.69-3.38,5.55-4.98.33-.23.69-.53,1.06-.85.61-.51,1.53-.68,2.13-.87.11.33.3,1.23.35,1.5,0,0,.47,2.41.77,4,1.65,8.95,3.36,18.2,3.98,27.36,0,.27,0,.53,0,.8.01.99-.01,1.48-.28,1.67-1.89,1.24-9.36,6.08-16.95,10.99l-12.96,8.4c-1.19.76-2.23,1.44-3.07,1.99-.26.17-.53.35-.78.51Z"/>
  <path class="cls-1" d="M388.34,252.98c-.39-2.27-.86-5.4-1.31-8.44-.26-1.75-.52-3.49-.76-5.06-.46-3.07-.95-6.25-1.39-9.11-.55-3.61-1.04-6.8-1.28-8.51h.8c.32.01.57,0,.8-.04,9.57-.97,18.81-4.82,24.88-7.88,1.39-.6,2.81-1.51,4.18-2.39,1.49-.95,2.9-1.86,4.3-2.4.16.25.32.62.54,1.13.27.63.6,1.41,1.11,2.3l3.15,6.43c1.96,4,3.91,7.96,4.7,9.58.53,1.17,1.08,2.54.69,3.69-.58,1.06-1.89,1.84-3.16,2.6-.38.23-.75.45-1.1.67-6.16,3.66-13.17,7.22-16.8,9.01-4.87,2.38-12.14,5.71-17.94,7.92-.35.09-.77.24-1.14.38-.09.03-.19.07-.29.11Z"/>
  <path class="cls-1" d="M341.91,448.14c-.45,0-.9,0-1.35-.03-.73-.07-.81-.35-.89-.6-1.08-4.23-1.77-7.8-1.9-9.84.4-.05.9-.08,1.5-.11.84-.04,1.9-.09,3.18-.25l8.63-.72c3.84-.32,7.58-.64,10.64-.88l.22-.02c.07.07.51.82-.34,4.55-.12.47-.22,1.04-.33,1.63-.21,1.17-.5,2.76-1.02,3.32-1.16.71-2.91,1.02-4.61,1.32-.72.13-1.44.25-2.11.41l-.15.02c-3.76.59-7.64,1.2-11.47,1.2h0Z"/>
  <path class="cls-1" d="M382.33,213.35c-.17,0-.34,0-.49-.02-.15-.14-.4-.55-.75-1.65-1.12-3.59-1.92-7.4-2.69-11.08-1.1-5.25-2.24-10.69-4.37-15.79-.35-.74-.46-1.32-.32-1.66.1-.25.39-.46.86-.63,6.14-2.32,12.62-5.41,20.42-9.74.17-.07.42-.21.69-.36.43-.24.97-.53,1.25-.53l-.08-.11c1.81,1.94,5.27,7.24,7.55,10.74l.87,1.34c.57.9,1.13,1.77,1.66,2.6,1.83,2.85,3.4,5.31,5,8.34l.06.12c.89,1.78,2.73,5.49,2.31,6.91l-.02.04c-.04.09-.2.24-.51.45-4.04,2.41-12.79,6.25-17.94,7.87-.88.22-2.04.55-3.31.92-3.43.99-7.7,2.22-10.18,2.22h0Z"/>
  <path class="cls-1" d="M331.11,304.15c-1.43,0-2.64-.05-3.68-.16-.16-.03-.36-.06-.56-.08-.4-.06-.61-.09-.72-.13-.1-.51-.1-1.25-.1-2.21,0-.86,0-1.94-.07-3.23-.07-3.14-.17-7.2-.27-11.16-.15-6.01-.3-11.7-.31-13.82.25-.09.75-.16,1.08-.2.29-.04.57-.08.84-.13,3.95-.49,8.12-.65,12.16-.8,2.24-.08,4.55-.17,6.82-.32,8.08-.35,16.13-2.35,23.91-4.29,3.3-.82,6.71-1.67,10.06-2.37,0,.13.02.27.02.39.02.32.03.67.07,1.07l.62,9.86c.25,3.99.5,7.92.69,10.82l.02.32c.1,1.47.17,2.54.18,3.94-.01.29,0,.71,0,1.17.02,1.24.06,3.31-.52,4.06-.32.38-.76.52-1.81.83-3.83,1-7.77,1.75-11.8,2.49-8.32,1.5-20.9,3.39-33.56,3.9-.96.03-2.01.06-3.05.06Z"/>
  <path class="cls-1" d="M431.81,411.15c.48-1.17.99-2.35,1.48-3.52.85-2,1.73-4.07,2.5-6.06,1.25-3.25,2.46-7.07,3.74-11.13,1.33-4.21,2.71-8.57,4.17-12.36.31-1.01.86-1.66,1.97-2.4.29-.21.53-.39.78-.58,1.21-.91,2.45-1.85,3.93-2.22,2.52-.43,4.55-1.84,6.51-3.21.6-.42,1.2-.84,1.82-1.23,1.52-.85,3.23-1.66,4.88-2.44,2.04-.97,4.15-1.96,6.13-3.15-.23.59-.54,1.22-.7,1.56-.13.27-.25.52-.35.74-7.63,13.9-20.12,32.87-36.87,45.98Z"/>
  <path class="cls-1" d="M447.89,365.12c.02-.2.05-.47.12-.83,2.02-11.66,3.45-22.18,4.38-32.16.22-1.46.23-3.05.23-4.59.01-2.71.02-5.28,1.16-7.43.44-.75,1.18-1.48,2.29-2.24,2.31-1.54,5.04-2.98,7.68-4.37,2.42-1.28,4.92-2.6,7.2-4.04,3.4-2.23,7.25-4.91,10.98-7.5,1.95-1.36,3.84-2.67,5.55-3.84-.81,12.2-3.44,24.57-5.94,35.16-.47,1.67-.9,3.52-1.31,5.31-.86,3.72-1.74,7.57-3.28,10.77-.62.92-1.81,1.56-2.9,2.08-6.57,2.87-12.98,6.42-19.17,9.85-2.33,1.29-4.65,2.58-6.99,3.83Z"/>
  <path class="cls-1" d="M390.68,295.11c-.02-.45-.03-1.01-.05-1.61-.02-.8-.04-1.73-.08-2.76-.08-3.75-.25-8.58-.41-13.29-.23-6.58-.44-12.81-.41-15.55.59-.8,2.09-1.17,3.54-1.52.99-.24,2.02-.49,2.9-.91,11.94-4.47,23.52-11.5,34.35-18.32.8-.55,1.22-.6,1.33-.6.07,0,.21,0,.37.5,1,3.32,1.83,6.81,2.63,10.18.88,3.68,1.78,7.48,2.92,11.15.25.98.63,2.05,1.04,3.18.98,2.72,1.99,5.53,1.15,7.78-1.09,1.5-3.04,2.51-4.92,3.49-.63.33-1.25.65-1.83.99-3.28,1.71-7.18,3.6-11.86,5.76-9.79,4.46-20.26,8.93-30.65,11.51Z"/>
  <path class="cls-1" d="M374.03,425.64c.1-.58.26-1.34.44-2.21.21-1.01.44-2.17.67-3.4l.76-4.02c1.38-7.3,3.09-16.37,4.11-18.94.16-.37.31-.45,1.43-.74.22-.05.45-.11.7-.18,6.65-1.41,13.19-3.03,20.42-4.84,9.78-2.48,19.24-6.04,28.39-9.49l2.84-1.07c.34-.13.61-.23.83-.29-.06.21-.14.48-.26.83l-.06.17c-3.69,10.95-7.5,22.27-13.44,32.19-2.9,3.73-20.24,8.2-46.43,11.99-.07,0-.21.01-.33.01-.02,0-.04,0-.06,0Z"/>
  <path class="cls-1" d="M369.45,443.05c.7-4.57,1.43-7.84,4.6-8.27,4.46-1.06,8.99-1.8,13.36-2.52,4.59-.75,9.34-1.52,13.91-2.65.85-.22,1.68-.52,2.48-.81,1-.36,1.94-.71,2.87-.88.47-.09.96-.11,1.48-.13.21,0,.41-.02.61-.03-6.89,5.16-27.11,12.26-38.29,15.43-.27.08-.72.21-1.08.26l.06-.39Z"/>
</svg>