<?xml version="1.0" encoding="UTF-8"?>
<svg id="Capa_1" data-name="Capa 1" xmlns="http://www.w3.org/2000/svg" viewBox="75 64 443.85 443.78">
  <defs>
    <style>
      .cls-1 {
        font-family: Orbitron-Black, Orbitron;
        font-size: 64.43px;
        font-weight: 800;
      }

      .cls-1, .cls-2 {
        fill: #368396;
      }
    </style>
  </defs>
  <path class="cls-2" d="M284.08,377.35c25.65-.01,44.56,0,72.33,0,12.64,0,25.07,0,32.81,0,4.54.03,7.42-.03,8.89-.6,1.91-.71,1.8-2.73,1.89-4.65,0-18.62,0-118.09,0-137.04-.05-3.76-.49-5.61-4.8-5.37-25.05,1.1-173.29-2.07-197.06,1.12-.72,1-.82,3.07-.78,6.73-.03,35.97.02,98,0,133-.04,4.18-.09,6.56,4.42,6.67,19.53.36,62.74.03,82.14.14h.15Z"/>
  <path class="cls-2" d="M277.26,68.42C52.92,94.1,5.29,388.45,208.08,484.81c78.91,37.42,181.27,18.99,242.36-43.11,145.59-144.57,30.99-390.03-172.92-373.31l-.26.02ZM447.37,227.73c-2.86,1.54-7.58,1.16-11.35,1.32-4.21,0-8.57-.03-12.69.39-4.74.49-4.92,1.66-5.01,4.36.04,33.92-.05,136.64,0,159.34.22,5.18-1.86,5.28-7.02,5.4-3.99.02-10.38,0-17.99,0h-45.26c-7.89.27-15.47-.54-21.56.41-3.33.42-.86,5.15,1.17,8.79,3.86,6.77,10.41,18.18,14.97,26.14,1.53,2.68,3.03,5.28,4.52,7.89,2.54,4.49,4.31,7.27,3.12,9.75-1.75,3.36-6.15,5.74-9.76,6.03-2.57.1-4.03-2.39-5.33-4.56-5.88-10.19-20.54-35.85-26.88-46.88-2.24-4.62-5.38-7.29-10.77-7.23-5.78-.37-9.72,1.63-12.19,6.85-7.12,12.1-21.72,38.51-28.71,49.72-2.96,4.4-8.93.89-11.97-1.83-3.33-2.93-1.44-6.55.38-9.67,2.43-4.3,6.13-10.71,9.89-17.28,3.46-6.04,6.97-12.17,9.58-16.72,1.48-2.56,5.58-9.44,3.5-10.45-1.85-1.69-17.12-.68-23.37-.94-20.15-.2-44.1.42-62.22-.26-1.68-.25-2.48-.69-2.9-1.56-1.42-19.84.03-141.26-.49-162.82-.08-2.24-.14-3.49-2.92-4.11-5.44-1.05-11.26-.54-17.25-.85-5.35-.11-9.12-1.04-9.25-6.32-.54-8.21-.12-18.68-.21-26.69.06-3.01.09-6.1.83-8.83.4-1.3,1.21-1.57,2.47-1.62,26.88.22,220.8-.17,293.91,0,1.81.12,2.71.23,3.1,5.63.29,4.41.23,8.76.23,13.32,0,4.93.05,11.24-.07,15.7-.15,3.99-.51,6.38-2.4,7.52l-.12.07Z"/>
</svg>
