<?xml version="1.0" encoding="UTF-8"?>
<svg id="Capa_2" data-name="Capa 2" xmlns="http://www.w3.org/2000/svg" viewBox="0 0 1040.74 307.28">
  <defs>
    <style>
      .cls-1 {
        fill: #95c4b4;
      }

      .cls-2 {
        fill: #dadc57;
      }

      .cls-3 {
        fill: #3a6357;
      }

      .cls-4 {
        fill: #436257;
      }
    </style>
  </defs>
  <g id="Capa_1-2" data-name="Capa 1">
    <g>
      <g>
        <path class="cls-2" d="M102.43,0h102.43v71.54c0,17.05-13.84,30.89-30.89,30.89h-71.54V0h0Z"/>
        <path class="cls-1" d="M102.43,204.86h71.54c17.05,0,30.89,13.84,30.89,30.89v71.54h-102.43v-102.43h0Z"/>
        <path class="cls-3" d="M30.89,102.43h71.54v102.43H30.89c-17.05,0-30.89-13.84-30.89-30.89v-40.65c0-17.05,13.84-30.89,30.89-30.89Z"/>
      </g>
      <g>
        <g>
          <path class="cls-4" d="M1006.29,0h-17.45c-16.92,0-30.63,13.71-30.63,30.63v41.13h-37.68v32.3h37.68v147.12h35.89V104.06h46.65v-32.3h-46.65v-39.47h46.65V0h-34.45Z"/>
          <rect class="cls-4" x="864.92" y="71.77" width="35.88" height="179.42"/>
          <path class="cls-4" d="M819.41,161.12c-11.36-8.85-28.77-14.59-52.21-17.22-11.48-1.44-20.58-3.11-27.27-5.02-6.7-1.91-11.54-4.42-14.53-7.54-3-3.11-4.49-6.94-4.49-11.48,0-6.46,2.81-11.36,8.43-14.71,5.62-3.35,13.93-5.02,24.94-5.02,13.87,0,24.64,2.4,32.3,7.18,7.65,4.79,12.08,11.37,13.28,19.74h35.88c-.72-11.48-4.55-21.77-11.48-30.86-6.94-9.09-16.27-16.2-27.99-21.35-11.72-5.14-24.76-7.72-39.11-7.72s-27.45,2.15-38.58,6.46c-11.12,4.31-19.8,10.53-26.02,18.66-6.22,8.14-9.33,17.94-9.33,29.43,0,10.29,2.57,19.02,7.71,26.19,5.14,7.18,13.15,13.04,24.04,17.58,10.88,4.55,24.81,7.89,41.8,10.05,10.28,1.44,18.48,3.11,24.58,5.02,6.1,1.92,10.53,4.49,13.28,7.72,2.75,3.23,4.13,7.24,4.13,12.02,0,7.9-3.47,13.64-10.41,17.22-6.94,3.59-16.51,5.38-28.71,5.38-14.59,0-25.96-2.69-34.09-8.07-8.14-5.38-12.8-11.18-14-20.27h-35.88c.48,12.2,4.06,21.59,10.77,31.04,6.69,9.45,16.2,16.87,28.53,22.25,12.32,5.38,26.73,8.07,43.24,8.07,15.31,0,28.89-2.28,40.73-6.82,11.84-4.54,21.05-11.12,27.63-19.74,6.58-8.61,9.87-19.02,9.87-31.22,0-15.79-5.69-28.11-17.05-36.96Z"/>
          <path class="cls-4" d="M620.8,80.92c-14.84-9.21-31.94-13.82-51.31-13.82-17.71,0-33.55,4.01-47.55,12.02-13.99,8.02-24.94,19.14-32.83,33.37-7.89,14.24-11.84,30.44-11.84,48.62s4,34.81,12.02,49.16c8.01,14.35,19.14,25.54,33.37,33.55,14.23,8.01,30.44,12.02,48.62,12.02,15.31,0,29.25-2.87,41.8-8.61,12.56-5.74,22.66-13.28,30.32-22.61,7.65-9.33,12.32-19.38,13.99-30.14h-35.88c-2.15,7.66-7.66,14.41-16.51,20.27-8.85,5.87-19.98,8.79-33.37,8.79-17.94,0-32.06-5.5-42.34-16.51-8.25-8.83-13.19-20.43-14.82-34.81h145.79c2.87-19.61.72-37.44-6.46-53.47-7.18-16.03-18.18-28.65-33.01-37.86ZM540.42,106.75c8.61-4.9,18.66-7.36,30.14-7.36s21.59,2.33,30.32,7c8.73,4.66,15.49,11.43,20.27,20.27,2.5,4.63,4.33,9.66,5.53,15.07h-110.73c1.12-4.88,2.69-9.44,4.73-13.63,4.54-9.33,11.12-16.44,19.74-21.35Z"/>
          <path class="cls-4" d="M335.75,108.73c8.61-5.02,18.66-7.53,30.14-7.53,14.35,0,26.55,3.71,36.6,11.12,10.05,7.42,16.27,16.75,18.66,29.42h35.88c-1.44-14.59-6.22-26.91-14.35-38.4-8.14-11.48-18.78-20.39-31.94-26.73-13.16-6.34-27.99-9.51-44.5-9.51-18.42,0-34.81,4.07-49.16,12.2-14.35,8.13-25.6,19.38-33.73,33.73-8.13,14.35-12.2,30.5-12.2,48.44s4.06,34.45,12.2,48.8c8.13,14.35,19.38,25.54,33.73,33.55,14.35,8.01,30.74,12.02,49.16,12.02,16.51,0,31.45-3.23,44.86-9.69,13.39-6.46,24.1-15.43,32.12-26.91,8.01-11.48,12.62-24.64,13.81-39.47h-35.88c-2.4,12.68-8.61,22.85-18.66,30.5-10.05,7.66-22.25,11.48-36.6,11.48-17.22,0-31.04-5.5-41.45-16.5-10.41-11-15.61-25.6-15.61-43.78,0-11.96,2.33-22.48,7-31.58,4.67-9.09,11.3-16.15,19.92-21.17Z"/>
        </g>
        <rect class="cls-4" x="864.16" y="15.74" width="35.9" height="35.9"/>
      </g>
    </g>
  </g>
</svg>